<?xml version="1.0" encoding="utf-8"?>
<!-- Generator: Adobe Illustrator 24.1.1, SVG Export Plug-In . SVG Version: 6.00 Build 0)  -->
<svg version="1.1" id="Capa_1" xmlns="http://www.w3.org/2000/svg" xmlns:xlink="http://www.w3.org/1999/xlink" x="0px" y="0px"
	 viewBox="0 0 895 315" style="enable-background:new 0 0 895 315;" xml:space="preserve">
<style type="text/css">
	.st0{fill:#5B2080;}
	.st1{fill:none;stroke:#FFFFFF;stroke-width:17;stroke-linecap:round;stroke-miterlimit:10;}
	.st2{fill:none;stroke:#FFFFFF;stroke-width:16;stroke-linecap:round;stroke-miterlimit:10;}
	.st3{enable-background:new    ;}
</style>
<g>
	<path class="st0" d="M301.9,264.2H132.2C60,264.2,1.5,205.7,1.5,133.5l0,0C1.5,61.4,60,2.9,132.2,2.9h169.6
		c72.2,0,130.7,58.5,130.7,130.7l0,0C432.5,205.7,374,264.2,301.9,264.2z"/>
</g>
<path class="st0" d="M97,306.1v-78.8c0-3.8,4-6.3,7.4-4.6l62.1,30.4c3.4,1.7,3.9,6.3,0.9,8.7l-62.1,48.5
	C101.9,312.8,97,310.4,97,306.1z"/>
<g>
	<line class="st1" x1="166" y1="86.4" x2="116.5" y2="135.9"/>
	<line class="st1" x1="166" y1="183.4" x2="117.5" y2="136.9"/>
</g>
<line class="st2" x1="237.5" y1="85.9" x2="195.5" y2="183.9"/>
<g>
	<line class="st1" x1="267.1" y1="183.5" x2="316.5" y2="134.1"/>
	<line class="st1" x1="267.1" y1="86.7" x2="315.5" y2="133.1"/>
</g>
<g class="st3">
	<path d="M449.8,206v-91.5h21.1l18.4,46.5l18.3-46.5h21V206h-21.7v-45.8L495,190.3h-11.6l-12-30.1V206H449.8z"/>
	<path d="M539,206v-91.5h21.7V206H539z"/>
	<path d="M594.7,206v-91.5h40.8c7.5,0,13.3,2.2,17.2,6.5c3.9,4.4,5.9,10.6,5.9,18.8c0,4.7-0.7,8.7-2.1,11.9
		c-1.4,3.2-3.3,5.8-5.6,7.7c3.2,1.5,5.7,3.7,7.6,6.6c1.9,2.9,2.8,7.2,2.8,12.9c0,8.6-2.2,15.3-6.5,20c-4.3,4.7-10.4,7.1-18.3,7.1
		H594.7z M615.6,151h14.1c5.3,0,8-2.9,8-8.8c0-2.9-0.6-5.2-1.9-6.7c-1.3-1.5-3.5-2.3-6.6-2.3h-13.5L615.6,151L615.6,151z
		 M615.6,187.4h15c2.9,0,5.1-0.8,6.5-2.3s2.1-4,2.1-7.5c0-2.9-0.7-5.2-2.1-6.7s-3.7-2.3-6.9-2.3h-14.5L615.6,187.4L615.6,187.4z"/>
	<path d="M669.3,206v-91.5H691v71.1h33.4V206L669.3,206L669.3,206z"/>
	<path d="M764.6,207.4c-12.3,0-21.7-3.7-28.2-11.1s-9.7-19.3-9.7-35.8c0-11.4,1.5-20.5,4.4-27.5c2.9-7,7.2-12,12.9-15.2
		c5.6-3.2,12.5-4.8,20.7-4.8c8.1,0,15,1.6,20.7,4.8c5.6,3.2,9.9,8.2,12.9,15.2c2.9,7,4.4,16.1,4.4,27.5c0,16.5-3.3,28.4-9.8,35.8
		C786.2,203.8,776.9,207.4,764.6,207.4z M764.6,184.6c5.5,0,9.6-1.9,12-5.8c2.5-3.8,3.7-10,3.7-18.4c0-9-1.3-15.4-3.7-19.1
		c-2.5-3.7-6.5-5.6-12-5.6s-9.6,1.9-12,5.6c-2.5,3.7-3.7,10.1-3.7,19.1c0,8.4,1.2,14.6,3.7,18.4
		C755.1,182.8,759.1,184.6,764.6,184.6z"/>
	<path d="M848.9,207.4c-13.2,0-23.3-4-30.2-12S808.3,176,808.3,161c0-15.3,3.6-27.2,10.7-35.5s17.6-12.5,31.4-12.5
		c4.6,0,8.8,0.3,12.5,1c3.7,0.7,7.2,1.7,10.6,3v22.9c-3.4-1.6-6.9-2.7-10.5-3.3s-7.3-0.9-11.1-0.9c-7.1,0-12.5,2-16.1,6
		s-5.3,10.4-5.3,19.3c0,8.3,1.6,14.4,4.7,18c3.1,3.6,7.7,5.5,13.8,5.5c2,0,3.9-0.2,5.7-0.5c1.8-0.3,3.4-0.8,5-1.3v-13.4h-14.8v-16.5
		h32.9v46c-2.8,2.2-6.6,4.1-11.4,5.8C861.6,206.4,855.8,207.4,848.9,207.4z"/>
</g>
</svg>
