<?xml version="1.0"?>
<svg width="112.196" height="112.196" xmlns="http://www.w3.org/2000/svg" xmlns:svg="http://www.w3.org/2000/svg" enable-background="new 0 0 112.196 112.196" version="1.1" xml:space="preserve">
 <g class="layer">
  <title>Layer 1</title>
  <g id="svg_1">
   <circle cx="56.1" cy="56.1" fill="#fff" id="svg_2" r="56.1"/>
   <g id="svg_3">
    <path d="m89.62,60.61l0,23.13l-13.41,0l0,-21.58c0,-5.42 -1.94,-9.12 -6.79,-9.12c-3.71,0 -5.91,2.49 -6.88,4.91c-0.36,0.86 -0.45,2.05 -0.45,3.26l0,22.53l-13.41,0c0,0 0.18,-36.55 0,-40.33l13.41,0l0,5.71c-0.02,0.05 -0.06,0.09 -0.08,0.14l0.08,0l0,-0.14c1.79,-2.74 4.96,-6.66 12.09,-6.66c8.82,0 15.44,5.77 15.44,18.15l0,0zm-54.96,-36.64c-4.59,0 -7.59,3.01 -7.59,6.97c0,3.87 2.91,6.97 7.41,6.97l0.09,0c4.67,0 7.58,-3.1 7.58,-6.97c-0.09,-3.96 -2.91,-6.97 -7.49,-6.97l0,0zm-6.8,59.77l13.41,0l0,-40.33l-13.41,0l0,40.33z" fill="#2f2f2f" id="svg_4"/>
   </g>
  </g>
  <g id="svg_5"/>
  <g id="svg_6"/>
  <g id="svg_7"/>
  <g id="svg_8"/>
  <g id="svg_9"/>
  <g id="svg_10"/>
  <g id="svg_11"/>
  <g id="svg_12"/>
  <g id="svg_13"/>
  <g id="svg_14"/>
  <g id="svg_15"/>
  <g id="svg_16"/>
  <g id="svg_17"/>
  <g id="svg_18"/>
  <g id="svg_19"/>
 </g>
</svg>