<?xml version="1.0"?>
<svg width="112.197" height="112.197" xmlns="http://www.w3.org/2000/svg" xmlns:svg="http://www.w3.org/2000/svg" enable-background="new 0 0 112.197 112.197" version="1.1" xml:space="preserve">
 <g class="layer">
  <title>Layer 1</title>
  <g id="svg_1">
   <circle cx="56.1" cy="56.1" fill="#fff" id="svg_2" r="56.1"/>
   <g id="svg_3">
    <path d="m90.46,40.32c-2.4,1.06 -4.99,1.78 -7.7,2.11c2.77,-1.66 4.89,-4.29 5.9,-7.42c-2.59,1.54 -5.47,2.65 -8.52,3.25c-2.44,-2.6 -5.93,-4.23 -9.79,-4.23c-7.4,0 -13.41,6 -13.41,13.41c0,1.05 0.12,2.07 0.35,3.05c-11.14,-0.56 -21.02,-5.89 -27.64,-14.01c-1.15,1.98 -1.81,4.29 -1.81,6.74c0,4.65 2.36,8.76 5.96,11.16c-2.2,-0.07 -4.26,-0.67 -6.07,-1.68c0,0.06 0,0.12 0,0.18c0,6.49 4.62,11.91 10.75,13.14c-1.12,0.31 -2.31,0.47 -3.53,0.47c-0.86,0 -1.7,-0.08 -2.52,-0.24c1.7,5.33 6.66,9.21 12.52,9.32c-4.59,3.59 -10.37,5.74 -16.65,5.74c-1.08,0 -2.15,-0.07 -3.2,-0.19c5.93,3.8 12.98,6.02 20.56,6.02c24.66,0 38.15,-20.43 38.15,-38.15c0,-0.58 -0.02,-1.16 -0.04,-1.73c2.62,-1.89 4.89,-4.25 6.69,-6.94l0,0z" fill="#2f2f2f" id="svg_4"/>
   </g>
  </g>
  <g id="svg_5"/>
  <g id="svg_6"/>
  <g id="svg_7"/>
  <g id="svg_8"/>
  <g id="svg_9"/>
  <g id="svg_10"/>
  <g id="svg_11"/>
  <g id="svg_12"/>
  <g id="svg_13"/>
  <g id="svg_14"/>
  <g id="svg_15"/>
  <g id="svg_16"/>
  <g id="svg_17"/>
  <g id="svg_18"/>
  <g id="svg_19"/>
 </g>
</svg>