<?xml version="1.0"?>
<svg width="473.931" height="473.931" xmlns="http://www.w3.org/2000/svg" xmlns:svg="http://www.w3.org/2000/svg" enable-background="new 0 0 473.931 473.931" version="1.1" xml:space="preserve">
 <g class="layer">
  <title>Layer 1</title>
  <circle cx="236.97" cy="236.97" fill="#fff" id="svg_1" r="236.97"/>
  <path d="m404.52,69.38c92.54,92.55 92.55,242.59 0,335.14c-92.54,92.54 -242.6,92.55 -335.14,0l335.14,-335.14z" fill="#fff" id="svg_2"/>
  <path d="m469.17,284.43l-117.28,-117.28l-138.33,15.75l-83.66,129.53l156.34,156.34c91.92,-19.45 164.18,-92.16 182.93,-184.34z" fill="#fff" id="svg_3"/>
  <path d="m360.97,191.24c0,-19.87 -16.09,-35.97 -35.95,-35.97l-168.65,0c-19.85,0 -35.94,16.11 -35.94,35.97l0,96.44c0,19.87 16.1,35.97 35.94,35.97l168.65,0c19.86,0 35.95,-16.11 35.95,-35.97l0,-96.44l0,0zm-144.33,88.91l0,-90.59l68.69,45.3l-68.69,45.29z" fill="#2f2f2f" id="svg_4"/>
  <g id="svg_5"/>
  <g id="svg_6"/>
  <g id="svg_7"/>
  <g id="svg_8"/>
  <g id="svg_9"/>
  <g id="svg_10"/>
  <g id="svg_11"/>
  <g id="svg_12"/>
  <g id="svg_13"/>
  <g id="svg_14"/>
  <g id="svg_15"/>
  <g id="svg_16"/>
  <g id="svg_17"/>
  <g id="svg_18"/>
  <g id="svg_19"/>
 </g>
</svg>